<?xml version="1.0" encoding="utf-8"?>
<!-- Generator: Adobe Illustrator 22.1.0, SVG Export Plug-In . SVG Version: 6.00 Build 0)  -->
<svg version="1.1" id="Layer_1" xmlns="http://www.w3.org/2000/svg" xmlns:xlink="http://www.w3.org/1999/xlink" x="0px" y="0px"
	 viewBox="0 0 447.9 278.7" style="enable-background:new 0 0 447.9 278.7;" xml:space="preserve">
<style type="text/css">
	.st0{fill:#FFFFFF;}
	.st1{font-family:'CenturyGothic';}
	.st2{font-size:90.353px;}
	.st3{font-size:90.196px;}
	.st4{font-size:191.71px;}
</style>
<g id="_Layer_" transform="translate(-31.333 -89.263)">
	<g id="Group_2">
		<text transform="matrix(1 0 0 1 177.208 216.121)" class="st0 st1 st2">ottega</text>
		<text transform="matrix(1 0 0 1 202.321 312.07)" class="st0 st1 st3">arele</text>
		<rect id="Rectangle_1" x="31.3" y="122" class="st0" width="143.2" height="180"/>
		<text transform="matrix(1 0 0 1 49.125 282.263)" class="st1 st4">B</text>
		<g id="Group_1">
			<path id="Path_1" class="st0" d="M217.6,252.4l-10.9,8.3c-5.7-7.5-13.1-13.6-21.6-17.7c-8.6-4.1-18.1-6.1-27.7-6
				c-10.7-0.1-21.2,2.7-30.5,7.9c-9.1,5-16.6,12.3-21.8,21.2c-5.2,9.1-7.9,19.5-7.7,30c0,16.8,5.8,30.8,17.3,42s26,16.8,43.6,16.8
				c19.3,0,35.4-7.6,48.4-22.7l10.9,8.2c-6.8,8.7-15.6,15.7-25.7,20.3c-10.8,4.9-22.5,7.3-34.4,7.2c-24.1,0-43.1-8-57-24.1
				C88.8,330.4,83,314,83,294.9c0-20.2,7.1-37.1,21.2-50.9c14.1-13.8,31.8-20.6,53.1-20.6c12.9,0,24.5,2.5,34.8,7.6
				C202.2,235.9,211,243.2,217.6,252.4z"/>
		</g>
		<path id="Path_2" d="M97.4,296c-0.2-10.5,2.5-20.9,7.7-30c5.2-8.9,12.7-16.3,21.8-21.2c9.3-5.3,19.8-8,30.5-7.9
			c5.7,0,11.5,0.7,17,2.1v-14c-5.7-1.1-11.4-1.7-17.2-1.7c-21.3,0-39,6.9-53.1,20.6c-14.1,13.8-21.2,30.7-21.2,50.9
			c0,2.4,0.1,4.8,0.3,7.1h14.5C97.5,299.9,97.4,298,97.4,296z"/>
		<path id="Path_3" d="M97.5,296.1c-0.2-10.5,2.5-20.9,7.7-30c5.2-8.9,12.7-16.3,21.8-21.2c9.3-5.3,19.8-8,30.5-7.9
			c5.7,0,11.5,0.7,17,2.1v-14c-5.7-1.1-11.4-1.7-17.2-1.7c-21.3,0-39,6.9-53.1,20.6c-14.1,13.8-21.2,30.7-21.2,50.9
			c0,2.4,0.1,4.8,0.3,7.1h14.5C97.5,300.1,97.5,298.1,97.5,296.1z"/>
		<rect id="Rectangle_2" x="81.4" y="268.8" width="26" height="13.3"/>
		<path id="Path_4" d="M128.2,226.2c0.8,0.8,1.4,1.8,1.8,2.9c0.3,1.1,3.2,11.9,3.2,11.9s1.2,0,1.2,0.9s14.1-3.5,14.1-3.5
			c-0.3-0.8-0.5-1.6-0.7-2.5c0-0.8-3.9-11.5-3.9-11.5c-0.9-0.3-1.8-0.6-2.7-0.8C140.8,223.5,128.2,226.2,128.2,226.2z"/>
	</g>
</g>
</svg>
